<svg width="14" height="12" viewBox="0 0 14 12" fill="none" xmlns="http://www.w3.org/2000/svg">
    <path
        d="M0 1.71429C0 0.76875 0.784766 0 1.75 0H12.25C13.2152 0 14 0.76875 14 1.71429V10.2857C14 11.2313 13.2152 12 12.25 12H1.75C0.784766 12 0 11.2313 0 10.2857V1.71429ZM8.85391 4.56696C8.73086 4.39018 8.52852 4.28571 8.3125 4.28571C8.09648 4.28571 7.89141 4.39018 7.77109 4.56696L5.39219 7.98482L4.66758 7.09821C4.5418 6.94554 4.35312 6.85714 4.15625 6.85714C3.95938 6.85714 3.76797 6.94554 3.64492 7.09821L1.89492 9.24107C1.73633 9.43393 1.70625 9.69911 1.81563 9.92143C1.925 10.1437 2.15469 10.2857 2.40625 10.2857H5.03125H5.90625H11.5938C11.8371 10.2857 12.0613 10.1545 12.1734 9.94286C12.2855 9.73125 12.2719 9.47679 12.1352 9.28125L8.85391 4.56696ZM3.0625 4.28571C3.4106 4.28571 3.74444 4.15026 3.99058 3.90914C4.23672 3.66802 4.375 3.34099 4.375 3C4.375 2.65901 4.23672 2.33198 3.99058 2.09086C3.74444 1.84974 3.4106 1.71429 3.0625 1.71429C2.7144 1.71429 2.38056 1.84974 2.13442 2.09086C1.88828 2.33198 1.75 2.65901 1.75 3C1.75 3.34099 1.88828 3.66802 2.13442 3.90914C2.38056 4.15026 2.7144 4.28571 3.0625 4.28571Z"
        fill="currentColor" />
</svg>