<svg width="14" height="14" viewBox="0 0 14 14" fill="none" xmlns="http://www.w3.org/2000/svg">
    <path
        d="M2.8392 4.42549C2.88383 4.35406 2.93027 4.28379 2.9785 4.21475H11.0215C11.0696 4.28406 11.116 4.35431 11.1608 4.42549L12.5748 3.60642L13.2748 4.82308L11.7257 5.72082C11.8391 6.13527 11.9 6.57291 11.9 7.02459V7.72705H14V9.13196H11.9C11.9003 9.7805 11.7728 10.4227 11.5248 11.0216L13.2748 12.0359L12.5748 13.2526L10.8066 12.2284C10.0301 13.19 8.92073 13.8224 7.7 13.9993V8.4295H6.3V14C5.07917 13.8229 3.96981 13.1903 3.1934 12.2284L1.4252 13.2526L0.7252 12.0359L2.4752 11.0223C2.22709 10.4232 2.09957 9.78074 2.1 9.13196H0V7.72705H2.1V7.02459C2.1 6.57291 2.1609 6.13598 2.2743 5.72082L0.7252 4.82308L1.4252 3.60642L2.8392 4.42549ZM4.2 2.80983C4.2 2.06462 4.495 1.34993 5.0201 0.822981C5.5452 0.296035 6.25739 0 7 0C7.74261 0 8.4548 0.296035 8.9799 0.822981C9.505 1.34993 9.8 2.06462 9.8 2.80983H4.2Z"
        fill="currentColor" />
</svg>