<svg width="8" height="8" viewBox="0 0 8 8" fill="none" xmlns="http://www.w3.org/2000/svg">
    <path
        d="M8 4C8 3.20888 7.7654 2.43552 7.32588 1.77772C6.88635 1.11992 6.26164 0.607234 5.53073 0.304483C4.79983 0.00173298 3.99556 -0.0774804 3.21964 0.0768604C2.44372 0.231201 1.73098 0.612164 1.17157 1.17157C0.612164 1.73098 0.231201 2.44372 0.0768603 3.21964C-0.0774805 3.99556 0.00173262 4.79983 0.304483 5.53073C0.607234 6.26164 1.11992 6.88635 1.77772 7.32588C2.43552 7.7654 3.20888 8 4 8C5.06087 8 6.07828 7.57857 6.82843 6.82843C7.57857 6.07828 8 5.06087 8 4ZM4.1075 6C4.04215 5.9332 4.00555 5.84346 4.00555 5.75C4.00555 5.65654 4.04215 5.56681 4.1075 5.5L5.25 4.35L1.715 4.35C1.62218 4.35 1.53315 4.31313 1.46751 4.24749C1.40188 4.18185 1.365 4.09283 1.365 4C1.365 3.90718 1.40188 3.81815 1.46751 3.75251C1.53315 3.68688 1.62218 3.65 1.715 3.65L5.215 3.65L4.1075 2.5425C4.0412 2.4762 4.00395 2.38627 4.00395 2.2925C4.00395 2.19873 4.0412 2.10881 4.1075 2.0425C4.1738 1.9762 4.26373 1.93895 4.3575 1.93895C4.45127 1.93895 4.5412 1.9762 4.6075 2.0425L6.575 4.02L4.6025 6C4.57 6.0325 4.53141 6.05829 4.48895 6.07588C4.44648 6.09347 4.40097 6.10253 4.355 6.10253C4.30904 6.10253 4.26352 6.09347 4.22105 6.07588C4.17859 6.05829 4.14 6.0325 4.1075 6Z"
        fill="currentColor" />
</svg>