<svg width="11" height="12" viewBox="0 0 11 12" fill="none" xmlns="http://www.w3.org/2000/svg">
    <path
        d="M3.33319 8.16699H2.16717C1.93644 8.16699 1.71058 8.2351 1.51873 8.36328C1.32692 8.49144 1.17736 8.6736 1.08905 8.88671C1.00079 9.09978 0.977723 9.33435 1.02264 9.56054C1.06766 9.78685 1.17882 9.99504 1.34198 10.1582C1.50514 10.3214 1.71332 10.4325 1.93963 10.4775C2.16583 10.5225 2.4004 10.4994 2.61346 10.4111C2.82658 10.3228 3.00873 10.1733 3.1369 9.98144C3.26508 9.78959 3.33319 9.56373 3.33319 9.333V8.16699ZM4.33319 7.16699H6.66717V4.833H4.33319V7.16699ZM3.33319 2.66699C3.33319 2.43626 3.26508 2.2104 3.1369 2.01855C3.00873 1.82674 2.82658 1.67717 2.61346 1.58886C2.4004 1.50061 2.16583 1.47754 1.93963 1.52246C1.71332 1.56747 1.50514 1.67863 1.34198 1.84179C1.17882 2.00495 1.06766 2.21314 1.02264 2.43945C0.977723 2.66565 1.00079 2.90021 1.08905 3.11328C1.17736 3.32639 1.32692 3.50855 1.51873 3.63672C1.71058 3.76489 1.93644 3.833 2.16717 3.833H3.33319V2.66699ZM7.66717 9.333C7.66717 9.56373 7.73528 9.78959 7.86346 9.98144C7.99163 10.1733 8.17378 10.3228 8.3869 10.4111C8.59996 10.4994 8.83453 10.5225 9.06073 10.4775C9.28704 10.4325 9.49522 10.3214 9.65838 10.1582C9.82154 9.99504 9.9327 9.78685 9.97772 9.56054C10.0226 9.33435 9.99957 9.09978 9.91131 8.88671C9.823 8.6736 9.67344 8.49144 9.48162 8.36328C9.28978 8.2351 9.06392 8.16699 8.83319 8.16699H7.66717V9.333ZM4.33319 3.833H6.66717V2.66699C6.66717 2.23846 6.79433 1.81919 7.03241 1.46289C7.27042 1.10677 7.60838 0.829007 8.00409 0.665036C8.39996 0.501058 8.83578 0.458412 9.25604 0.541989C9.67633 0.62559 10.0624 0.831748 10.3654 1.13476C10.6684 1.43778 10.8746 1.82384 10.9582 2.24414C11.0418 2.6644 10.9991 3.10021 10.8351 3.49609C10.6712 3.8918 10.3934 4.22976 10.0373 4.46777C9.68098 4.70585 9.26171 4.833 8.83319 4.833H7.66717V7.16699H8.83319C9.26171 7.16699 9.68098 7.29415 10.0373 7.53222C10.3934 7.77024 10.6712 8.1082 10.8351 8.5039C10.9991 8.89978 11.0418 9.33559 10.9582 9.75586C10.8746 10.1761 10.6684 10.5622 10.3654 10.8652C10.0624 11.1682 9.67633 11.3744 9.25604 11.458C8.83578 11.5416 8.39996 11.4989 8.00409 11.335C7.60838 11.171 7.27042 10.8932 7.03241 10.5371C6.79433 10.1808 6.66717 9.76153 6.66717 9.333V8.16699H4.33319V9.333C4.33319 9.76153 4.20603 10.1808 3.96795 10.5371C3.72994 10.8932 3.39198 11.171 2.99627 11.335C2.6004 11.4989 2.16458 11.5416 1.74432 11.458C1.32403 11.3744 0.937959 11.1682 0.634945 10.8652C0.331931 10.5622 0.125773 10.1761 0.0421717 9.75586C-0.0414045 9.33559 0.00124097 8.89978 0.165219 8.5039C0.32919 8.1082 0.606952 7.77024 0.96307 7.53222C1.31938 7.29415 1.73865 7.16699 2.16717 7.16699H3.33319V4.833H2.16717C1.73865 4.833 1.31938 4.70585 0.96307 4.46777C0.606952 4.22976 0.32919 3.8918 0.165219 3.49609C0.00124095 3.10021 -0.0414045 2.6644 0.0421717 2.24414C0.125773 1.82384 0.331931 1.43778 0.634945 1.13476C0.937959 0.831748 1.32403 0.62559 1.74432 0.541989C2.16458 0.458412 2.6004 0.501058 2.99627 0.665036C3.39198 0.829007 3.72994 1.10677 3.96795 1.46289C4.20603 1.81919 4.33319 2.23846 4.33319 2.66699V3.833ZM7.66717 3.833H8.83319C9.06392 3.833 9.28978 3.76489 9.48162 3.63672C9.67344 3.50855 9.823 3.32639 9.91131 3.11328C9.99957 2.90021 10.0226 2.66565 9.97772 2.43945C9.9327 2.21314 9.82154 2.00495 9.65838 1.84179C9.49522 1.67863 9.28704 1.56747 9.06073 1.52246C8.83453 1.47754 8.59996 1.50061 8.3869 1.58886C8.17378 1.67717 7.99163 1.82674 7.86346 2.01855C7.73528 2.2104 7.66717 2.43626 7.66717 2.66699V3.833Z"
        fill="currentColor" />
</svg>