<svg width="15" height="13" viewBox="0 0 15 13" fill="none" xmlns="http://www.w3.org/2000/svg">
    <path
        d="M13.6364 11.1667H15V12.5H0V11.1667H1.36364V1.16667C1.36364 0.989856 1.43547 0.820286 1.56334 0.695262C1.6912 0.570238 1.86463 0.5 2.04545 0.5H8.86364C9.04447 0.5 9.21789 0.570238 9.34575 0.695262C9.47362 0.820286 9.54545 0.989856 9.54545 1.16667V11.1667H10.9091V4.5H12.9545C13.1354 4.5 13.3088 4.57024 13.4367 4.69526C13.5645 4.82029 13.6364 4.98986 13.6364 5.16667V11.1667ZM4.09091 5.83333V7.16667H6.81818V5.83333H4.09091ZM4.09091 3.16667V4.5H6.81818V3.16667H4.09091Z"
        fill="currentColor" />
</svg>