<svg width="12" height="12" viewBox="0 0 12 12" fill="none" xmlns="http://www.w3.org/2000/svg">
    <path
        d="M0 6C0 4.4087 0.632141 2.88258 1.75736 1.75736C2.88258 0.632141 4.4087 0 6 0C7.5913 0 9.11742 0.632141 10.2426 1.75736C11.3679 2.88258 12 4.4087 12 6C12 7.5913 11.3679 9.11742 10.2426 10.2426C9.11742 11.3679 7.5913 12 6 12C4.4087 12 2.88258 11.3679 1.75736 10.2426C0.632141 9.11742 0 7.5913 0 6ZM7.5 8.25C7.5 7.61953 7.11328 7.08047 6.5625 6.86016V2.0625C6.5625 1.75078 6.31172 1.5 6 1.5C5.68828 1.5 5.4375 1.75078 5.4375 2.0625V6.86016C4.88672 7.08281 4.5 7.62188 4.5 8.25C4.5 9.07734 5.17266 9.75 6 9.75C6.82734 9.75 7.5 9.07734 7.5 8.25ZM3.375 4.125C3.57391 4.125 3.76468 4.04598 3.90533 3.90533C4.04598 3.76468 4.125 3.57391 4.125 3.375C4.125 3.17609 4.04598 2.98532 3.90533 2.84467C3.76468 2.70402 3.57391 2.625 3.375 2.625C3.17609 2.625 2.98532 2.70402 2.84467 2.84467C2.70402 2.98532 2.625 3.17609 2.625 3.375C2.625 3.57391 2.70402 3.76468 2.84467 3.90533C2.98532 4.04598 3.17609 4.125 3.375 4.125ZM3 6C3 5.80109 2.92098 5.61032 2.78033 5.46967C2.63968 5.32902 2.44891 5.25 2.25 5.25C2.05109 5.25 1.86032 5.32902 1.71967 5.46967C1.57902 5.61032 1.5 5.80109 1.5 6C1.5 6.19891 1.57902 6.38968 1.71967 6.53033C1.86032 6.67098 2.05109 6.75 2.25 6.75C2.44891 6.75 2.63968 6.67098 2.78033 6.53033C2.92098 6.38968 3 6.19891 3 6ZM9.75 6.75C9.94891 6.75 10.1397 6.67098 10.2803 6.53033C10.421 6.38968 10.5 6.19891 10.5 6C10.5 5.80109 10.421 5.61032 10.2803 5.46967C10.1397 5.32902 9.94891 5.25 9.75 5.25C9.55109 5.25 9.36032 5.32902 9.21967 5.46967C9.07902 5.61032 9 5.80109 9 6C9 6.19891 9.07902 6.38968 9.21967 6.53033C9.36032 6.67098 9.55109 6.75 9.75 6.75ZM9.375 3.375C9.375 3.17609 9.29598 2.98532 9.15533 2.84467C9.01468 2.70402 8.82391 2.625 8.625 2.625C8.42609 2.625 8.23532 2.70402 8.09467 2.84467C7.95402 2.98532 7.875 3.17609 7.875 3.375C7.875 3.57391 7.95402 3.76468 8.09467 3.90533C8.23532 4.04598 8.42609 4.125 8.625 4.125C8.82391 4.125 9.01468 4.04598 9.15533 3.90533C9.29598 3.76468 9.375 3.57391 9.375 3.375Z"
        fill="currentColor" />
</svg>