<svg width="14" height="12" viewBox="0 0 14 12" fill="none" xmlns="http://www.w3.org/2000/svg">
    <path
        d="M2.625 1.71429C2.625 0.76875 3.40977 0 4.375 0H12.25C13.2152 0 14 0.76875 14 1.71429V10.2857C14 11.2313 13.2152 12 12.25 12H2.1875C0.978906 12 0 11.0411 0 9.85714V2.57143C0 2.09732 0.391016 1.71429 0.875 1.71429C1.35898 1.71429 1.75 2.09732 1.75 2.57143V9.85714C1.75 10.0929 1.94687 10.2857 2.1875 10.2857C2.42813 10.2857 2.625 10.0929 2.625 9.85714V1.71429ZM4.375 2.35714V4.5C4.375 4.85625 4.66758 5.14286 5.03125 5.14286H8.09375C8.45742 5.14286 8.75 4.85625 8.75 4.5V2.35714C8.75 2.00089 8.45742 1.71429 8.09375 1.71429H5.03125C4.66758 1.71429 4.375 2.00089 4.375 2.35714ZM10.0625 2.14286C10.0625 2.37857 10.2594 2.57143 10.5 2.57143H11.8125C12.0531 2.57143 12.25 2.37857 12.25 2.14286C12.25 1.90714 12.0531 1.71429 11.8125 1.71429H10.5C10.2594 1.71429 10.0625 1.90714 10.0625 2.14286ZM10.0625 4.71429C10.0625 4.95 10.2594 5.14286 10.5 5.14286H11.8125C12.0531 5.14286 12.25 4.95 12.25 4.71429C12.25 4.47857 12.0531 4.28571 11.8125 4.28571H10.5C10.2594 4.28571 10.0625 4.47857 10.0625 4.71429ZM4.375 7.28571C4.375 7.52143 4.57187 7.71429 4.8125 7.71429H11.8125C12.0531 7.71429 12.25 7.52143 12.25 7.28571C12.25 7.05 12.0531 6.85714 11.8125 6.85714H4.8125C4.57187 6.85714 4.375 7.05 4.375 7.28571ZM4.375 9.85714C4.375 10.0929 4.57187 10.2857 4.8125 10.2857H11.8125C12.0531 10.2857 12.25 10.0929 12.25 9.85714C12.25 9.62143 12.0531 9.42857 11.8125 9.42857H4.8125C4.57187 9.42857 4.375 9.62143 4.375 9.85714Z"
        fill="currentColor" />
</svg>