<svg width="20" height="20" viewBox="0 0 20 20" fill="none" xmlns="http://www.w3.org/2000/svg">
    <path
        d="M9 6.25C9.94848 6.25 10.9771 6.563 11.707 7.29297C12.0976 7.68349 12.0976 8.31651 11.707 8.70703C11.3165 9.09756 10.6835 9.09756 10.293 8.70703C10.0229 8.437 9.55152 8.25 9 8.25C8.44848 8.25 7.97706 8.437 7.70703 8.70703L2.70703 13.707C2.437 13.9771 2.25 14.4485 2.25 15C2.25 15.5515 2.437 16.0229 2.70703 16.293L3.70703 17.293C3.97706 17.563 4.44848 17.75 5 17.75C5.55152 17.75 6.02294 17.563 6.29297 17.293L8.29297 15.293C8.68349 14.9024 9.31651 14.9024 9.70703 15.293C10.0976 15.6835 10.0976 16.3165 9.70703 16.707L7.70703 18.707C6.97706 19.437 5.94848 19.75 5 19.75C4.05152 19.75 3.02294 19.437 2.29297 18.707L1.29297 17.707C0.562995 16.9771 0.25 15.9485 0.25 15C0.25 14.0515 0.562995 13.0229 1.29297 12.293L6.29297 7.29297C7.02294 6.563 8.05152 6.25 9 6.25ZM15 0.25C15.9485 0.25 16.9771 0.562995 17.707 1.29297L18.707 2.29297C19.437 3.02294 19.75 4.05152 19.75 5C19.75 5.94848 19.437 6.97706 18.707 7.70703L13.707 12.707C12.9771 13.437 11.9485 13.75 11 13.75C10.0515 13.75 9.02294 13.437 8.29297 12.707C7.90244 12.3165 7.90244 11.6835 8.29297 11.293C8.68349 10.9024 9.31651 10.9024 9.70703 11.293C9.97706 11.563 10.4485 11.75 11 11.75C11.5515 11.75 12.0229 11.563 12.293 11.293L17.293 6.29297C17.563 6.02294 17.75 5.55152 17.75 5C17.75 4.44848 17.563 3.97706 17.293 3.70703L16.293 2.70703C16.0229 2.437 15.5515 2.25 15 2.25C14.4485 2.25 13.9771 2.437 13.707 2.70703L11.707 4.70703C11.3165 5.09756 10.6835 5.09756 10.293 4.70703C9.90244 4.31651 9.90244 3.68349 10.293 3.29297L12.293 1.29297C13.0229 0.562995 14.0515 0.25 15 0.25Z"
        fill="currentColor" />
</svg>