<svg width="12" height="12" viewBox="0 0 12 12" fill="none" xmlns="http://www.w3.org/2000/svg">
    <path
        d="M1.36364 12C0.988636 12 0.667727 11.8695 0.400909 11.6087C0.134091 11.3478 0.000454545 11.0338 0 10.6667V1.33333C0 0.966666 0.133636 0.652888 0.400909 0.392C0.668182 0.131111 0.989091 0.000444444 1.36364 0H5.45455C5.64773 0 5.80977 0.064 5.94068 0.192C6.07159 0.32 6.13682 0.478222 6.13636 0.666666C6.13591 0.85511 6.07045 1.01355 5.94 1.142C5.80955 1.27044 5.64773 1.33422 5.45455 1.33333H1.36364V10.6667H5.45455C5.64773 10.6667 5.80977 10.7307 5.94068 10.8587C6.07159 10.9867 6.13682 11.1449 6.13636 11.3333C6.13591 11.5218 6.07045 11.6802 5.94 11.8087C5.80955 11.9371 5.64773 12.0009 5.45455 12H1.36364ZM9.66477 6.66666H4.77273C4.57955 6.66666 4.41773 6.60266 4.28727 6.47466C4.15682 6.34666 4.09136 6.18844 4.09091 6C4.09045 5.81155 4.15591 5.65333 4.28727 5.52533C4.41864 5.39733 4.58045 5.33333 4.77273 5.33333H9.66477L8.38636 4.08333C8.26136 3.96111 8.19886 3.81111 8.19886 3.63333C8.19886 3.45555 8.26136 3.3 8.38636 3.16666C8.51136 3.03333 8.67045 2.96378 8.86364 2.958C9.05682 2.95222 9.22159 3.01622 9.35795 3.15L11.7955 5.53333C11.9318 5.66666 12 5.82222 12 6C12 6.17777 11.9318 6.33333 11.7955 6.46666L9.35795 8.84999C9.22159 8.98333 9.05977 9.04733 8.8725 9.04199C8.68523 9.03666 8.52318 8.9671 8.38636 8.83333C8.26136 8.69999 8.20182 8.54177 8.20773 8.35866C8.21364 8.17555 8.27886 8.02266 8.40341 7.89999L9.66477 6.66666Z"
        fill="currentColor" />
</svg>