<svg width="19" height="21" viewBox="0 0 19 21" fill="none" xmlns="http://www.w3.org/2000/svg">
    <path
        d="M3.57617 2.08105C2.2909 2.15317 1.47916 2.35775 0.897461 2.93945C-0.000361518 3.83731 -2.88171e-10 5.28277 -2.88171e-10 8.17285V14.3037C-2.84871e-10 17.1938 -0.000407947 18.6392 0.897461 19.5371C1.79533 20.435 3.24077 20.4346 6.13086 20.4346H12.2617C15.1518 20.4346 16.5973 20.435 17.4951 19.5371C18.393 18.6392 18.3926 17.1938 18.3926 14.3037V8.17285C18.3926 5.28276 18.3929 3.83731 17.4951 2.93945C16.9134 2.35775 16.1017 2.15317 14.8164 2.08105V2.55469C14.8163 4.24757 13.4439 5.62004 11.751 5.62012H6.6416C4.94867 5.62004 3.57625 4.24757 3.57617 2.55469V2.08105ZM14.3057 15.0723C14.7287 15.0724 15.0711 15.4149 15.0713 15.8379C15.0713 16.261 14.7288 16.6043 14.3057 16.6045H13.7949C13.3717 16.6045 13.0283 16.2611 13.0283 15.8379C13.0285 15.4148 13.3718 15.0723 13.7949 15.0723H14.3057ZM10.7295 15.0723C11.1524 15.0725 11.495 15.4149 11.4951 15.8379C11.4951 16.261 11.1525 16.6042 10.7295 16.6045H4.08691C3.66381 16.6043 3.32129 16.261 3.32129 15.8379C3.32143 15.4149 3.6639 15.0724 4.08691 15.0723H10.7295ZM14.3057 11.4951C14.7287 11.4953 15.0712 11.8386 15.0713 12.2617C15.0713 12.6849 14.7288 13.0282 14.3057 13.0283H13.7949C13.3717 13.0283 13.0283 12.685 13.0283 12.2617C13.0284 11.8385 13.3717 11.4951 13.7949 11.4951H14.3057ZM10.7295 11.4951C11.1525 11.4954 11.4951 11.8387 11.4951 12.2617C11.4951 12.6848 11.1525 13.0281 10.7295 13.0283H4.08691C3.66381 13.0282 3.32129 12.6849 3.32129 12.2617C3.32133 11.8386 3.66384 11.4953 4.08691 11.4951H10.7295ZM14.3057 7.91895C14.7288 7.9191 15.0713 8.26241 15.0713 8.68555C15.0712 9.10864 14.7287 9.45199 14.3057 9.45215H13.7949C13.3717 9.45215 13.0284 9.10874 13.0283 8.68555C13.0283 8.26231 13.3717 7.91895 13.7949 7.91895H14.3057ZM10.7295 7.91895C11.1525 7.9192 11.4951 8.26247 11.4951 8.68555C11.4951 9.10858 11.1525 9.45189 10.7295 9.45215H4.08691C3.66385 9.45199 3.32135 9.10864 3.32129 8.68555C3.32129 8.26241 3.66381 7.9191 4.08691 7.91895H10.7295ZM6.6416 0C5.7952 8.17203e-05 5.10937 0.68675 5.10937 1.5332V2.55469C5.10945 3.40107 5.79525 4.08683 6.6416 4.08691H11.751C12.5974 4.08684 13.2831 3.40108 13.2832 2.55469V1.5332C13.2832 0.686747 12.5974 7.60487e-05 11.751 0H6.6416Z"
        fill="currentColor" />
</svg>