<svg width="12" height="13" viewBox="0 0 12 13" fill="none" xmlns="http://www.w3.org/2000/svg">
    <path fill-rule="evenodd" clip-rule="evenodd"
        d="M8.82757 12.4983C7.9621 12.4664 5.50936 12.1275 2.94062 9.55993C0.372475 6.99171 0.0341028 4.54007 0.00164798 3.67418C-0.0464333 2.35462 0.964476 1.07292 2.13225 0.572374C2.27287 0.511664 2.42687 0.48855 2.57912 0.5053C2.73138 0.52205 2.87666 0.578088 3.00072 0.667916C3.96234 1.36856 4.62586 2.42853 5.19563 3.26197C5.32099 3.44508 5.37459 3.6679 5.34622 3.88798C5.31784 4.10806 5.20948 4.31 5.04177 4.45534L3.86919 5.32604C3.81254 5.36694 3.77266 5.427 3.75696 5.49508C3.74127 5.56316 3.75082 5.63462 3.78384 5.69619C4.04949 6.1787 4.52189 6.89737 5.0628 7.43818C5.60372 7.97898 6.35679 8.48253 6.87306 8.77817C6.93779 8.8145 7.01399 8.82465 7.08598 8.80655C7.15797 8.78844 7.22028 8.74345 7.26012 8.68082L8.02341 7.5193C8.16374 7.33293 8.37075 7.20808 8.60109 7.17089C8.83143 7.1337 9.06723 7.18706 9.2591 7.3198C10.1047 7.90507 11.0916 8.55704 11.814 9.48181C11.9112 9.60674 11.9729 9.75546 11.9929 9.91244C12.0129 10.0694 11.9904 10.2289 11.9276 10.3741C11.4246 11.5477 10.1516 12.547 8.82757 12.4983Z"
        fill="currentColor" />
</svg>