<svg width="14" height="14" viewBox="0 0 14 14" fill="none" xmlns="http://www.w3.org/2000/svg">
    <path
        d="M6.47461 7.35791V13.9663C5.97218 13.8411 5.39994 13.5407 4.49512 13.0659L3.0957 12.3315C1.58954 11.5411 0.836143 11.1462 0.417969 10.436C-0.000206516 9.72589 0 8.84203 0 7.07471V6.99268C0 5.66789 -0.000363991 4.83935 0.175781 4.2085L6.47461 7.35791ZM13.8242 4.2085C14.0003 4.83935 14 5.66789 14 6.99268V7.07471C14 8.84203 14.0002 9.72589 13.582 10.436C13.1639 11.1462 12.4105 11.5411 10.9043 12.3315L9.50391 13.0659C8.59925 13.5407 8.02778 13.8411 7.52539 13.9663V7.35791L9.97461 6.1333V7.73389C9.97471 8.02374 10.2101 8.2583 10.5 8.2583C10.7899 8.2583 11.0253 8.02374 11.0254 7.73389V5.60791L13.8242 4.2085ZM9.3877 5.25244L7 6.44678L0.671875 3.28271C1.12422 2.77043 1.85408 2.38741 3.0957 1.73584L3.16699 1.69775L9.3877 5.25244ZM7 0.0336914C7.66097 0.0336914 8.27513 0.356623 9.50391 1.00146L10.9043 1.73584C12.146 2.38741 12.8758 2.77043 13.3281 3.28271L10.5166 4.68799L4.27051 1.11963L4.49512 1.00146C5.72404 0.356548 6.33899 0.0336918 7 0.0336914Z"
        fill="currentColor" />
</svg>