<svg width="10" height="12" viewBox="0 0 10 12" fill="none" xmlns="http://www.w3.org/2000/svg">
    <path
        d="M5 6C5.75776 6 6.48449 5.68393 7.02031 5.12132C7.55612 4.55871 7.85714 3.79565 7.85714 3C7.85714 2.20435 7.55612 1.44129 7.02031 0.87868C6.48449 0.316071 5.75776 0 5 0C4.24224 0 3.51551 0.316071 2.97969 0.87868C2.44388 1.44129 2.14286 2.20435 2.14286 3C2.14286 3.79565 2.44388 4.55871 2.97969 5.12132C3.51551 5.68393 4.24224 6 5 6ZM3.97991 7.125C1.78125 7.125 0 8.99531 0 11.3039C0 11.6883 0.296875 12 0.662946 12H9.33705C9.70312 12 10 11.6883 10 11.3039C10 8.99531 8.21875 7.125 6.02009 7.125H3.97991Z"
        fill="currentColor" />
</svg>