<svg width="14" height="14" viewBox="0 0 14 14" fill="none" xmlns="http://www.w3.org/2000/svg">
    <path
        d="M10.3251 5.89406C10.3251 5.31222 10.211 4.73595 9.98838 4.19839C9.76569 3.66075 9.43877 3.17232 9.02729 2.76083C8.61582 2.34936 8.12735 2.02243 7.58974 1.79975C7.05219 1.57712 6.4759 1.46306 5.89406 1.46306C5.31223 1.46306 4.73594 1.57711 4.19839 1.79975C3.66077 2.02244 3.17231 2.34935 2.76083 2.76083C1.92984 3.59184 1.46308 4.71884 1.46306 5.89406C1.46306 7.06928 1.92987 8.19627 2.76083 9.02729C3.59185 9.85832 4.71884 10.3251 5.89406 10.3251C7.0693 10.3251 8.19628 9.85832 9.02729 9.02729C9.43874 8.61582 9.7657 8.12734 9.98838 7.58974C10.211 7.0522 10.3251 6.47588 10.3251 5.89406ZM11.7881 5.89406C11.7881 6.66807 11.6354 7.43478 11.3392 8.14987C11.1369 8.63831 10.8676 9.09424 10.5444 9.50988L13.7858 12.7513C14.0714 13.0369 14.0714 13.5002 13.7858 13.7858C13.5002 14.0714 13.0369 14.0714 12.7513 13.7858L9.5109 10.5454C8.48193 11.3456 7.21131 11.7881 5.89406 11.7881C4.33091 11.7881 2.8316 11.1672 1.72629 10.0618C0.621022 8.95652 1.16461e-08 7.4572 0 5.89406C2.58257e-05 4.33093 0.620993 2.8316 1.72629 1.72629C2.2735 1.17907 2.92331 0.745111 3.63826 0.448916C4.35333 0.152719 5.12007 3.08477e-06 5.89406 0C6.66806 -5.76681e-09 7.43479 0.152716 8.14987 0.448916C8.86483 0.745107 9.51462 1.17907 10.0618 1.72629C10.609 2.2735 11.043 2.92332 11.3392 3.63826C11.6354 4.35332 11.7881 5.12009 11.7881 5.89406Z"
        fill="currentColor" />
</svg>