<svg width="21" height="19" viewBox="0 0 21 19" fill="none" xmlns="http://www.w3.org/2000/svg">
    <path
        d="M16.5375 13.0622H4.47562C4.33125 13.0622 4.21312 13.1958 4.21312 13.3591L4.20984 15.1404C4.20984 15.3037 4.32797 15.4373 4.47234 15.4373H16.5375C16.6819 15.4373 16.8 15.3037 16.8 15.1404V13.3591C16.8 13.1958 16.6819 13.0622 16.5375 13.0622ZM16.5375 16.6249H4.46578C4.32141 16.6249 4.20328 16.7585 4.20328 16.9218L4.2 18.7031C4.2 18.8664 4.31812 19 4.4625 19H16.5375C16.6819 19 16.8 18.8664 16.8 18.7031V16.9218C16.8 16.7585 16.6819 16.6249 16.5375 16.6249ZM16.5375 9.49954H4.48219C4.33781 9.49954 4.21969 9.63314 4.21969 9.79643L4.21641 11.5778C4.21641 11.7411 4.33453 11.8747 4.47891 11.8747H16.5375C16.6819 11.8747 16.8 11.7411 16.8 11.5778V9.79643C16.8 9.63314 16.6819 9.49954 16.5375 9.49954ZM20.032 4.34108L11.1037 0.136386C10.9118 0.0463464 10.7061 0 10.4984 0C10.2906 0 10.0849 0.0463464 9.89297 0.136386L0.967969 4.34108C0.383906 4.61942 0 5.26515 0 5.98511V18.7031C0 18.8664 0.118125 19 0.2625 19H2.8875C3.03187 19 3.15 18.8664 3.15 18.7031V9.49954C3.15 8.84638 3.62906 8.31198 4.21969 8.31198H16.7803C17.3709 8.31198 17.85 8.84638 17.85 9.49954V18.7031C17.85 18.8664 17.9681 19 18.1125 19H20.7375C20.8819 19 21 18.8664 21 18.7031V5.98511C21 5.26515 20.6161 4.61942 20.032 4.34108Z"
        fill="currentColor" />
</svg>