<svg width="14" height="12" viewBox="0 0 14 12" fill="none" xmlns="http://www.w3.org/2000/svg">
    <path
        d="M0.673779 12C0.548739 12 0.435067 11.9695 0.332761 11.9086C0.230456 11.8478 0.150885 11.7671 0.0940489 11.6666C0.0372126 11.5662 0.00606631 11.4578 0.00061002 11.3413C-0.00484627 11.2249 0.0263 11.1111 0.0940489 11L6.40288 0.333333C6.47108 0.222222 6.55929 0.138889 6.66751 0.0833332C6.77573 0.0277777 6.88644 0 6.99966 0C7.11288 0 7.22382 0.0277777 7.33249 0.0833332C7.44117 0.138889 7.52915 0.222222 7.59644 0.333333L13.9053 11C13.9735 11.1111 14.0048 11.2251 13.9994 11.342C13.9939 11.4589 13.9626 11.5671 13.9053 11.6666C13.848 11.7662 13.7684 11.8469 13.6666 11.9086C13.5647 11.9704 13.451 12.0009 13.3255 12H0.673779ZM6.99966 9.99998C7.1929 9.99998 7.355 9.93598 7.48595 9.80798C7.6169 9.67998 7.68215 9.52176 7.6817 9.33332C7.68124 9.14487 7.61577 8.98665 7.48527 8.85865C7.35477 8.73065 7.1929 8.66665 6.99966 8.66665C6.80642 8.66665 6.64455 8.73065 6.51405 8.85865C6.38356 8.98665 6.31808 9.14487 6.31763 9.33332C6.31717 9.52176 6.38265 9.68021 6.51405 9.80865C6.64546 9.93709 6.80733 10.0009 6.99966 9.99998ZM6.99966 7.99999C7.1929 7.99999 7.355 7.93599 7.48595 7.80799C7.6169 7.67999 7.68215 7.52177 7.6817 7.33332V5.33332C7.6817 5.14444 7.61622 4.98621 7.48527 4.85866C7.35432 4.7311 7.19245 4.6671 6.99966 4.66666C6.80687 4.66621 6.645 4.73021 6.51405 4.85866C6.3831 4.9871 6.31763 5.14533 6.31763 5.33332V7.33332C6.31763 7.52221 6.3831 7.68065 6.51405 7.80865C6.645 7.93665 6.80687 8.00043 6.99966 7.99999Z"
        fill="currentColor" />
</svg>