<svg width="512" height="513" viewBox="0 0 512 513" fill="none" xmlns="http://www.w3.org/2000/svg">
    <g clip-path="url(#clip0_114_23)">
        <rect x="0.0195312" y="0.980469" width="511.961" height="512" rx="60" fill="#141C26" />
        <path d="M512 512.961L0.0390625 1L0 1.03906L0 1L512 1L512 512.961Z" fill="url(#paint0_linear_114_23)" />
        <path d="M4.51942e-05 -4.00005L516.961 512.961L517 512.922L517 512.961L0 512.961L4.51942e-05 -4.00005Z"
            fill="url(#paint1_linear_114_23)" />
        <path
            d="M120 338.334V385.279C120 389.603 123.397 393 127.721 393H174.666C176.673 393 178.681 392.228 180.071 390.684L348.701 222.208L290.792 164.299L122.316 332.775C120.772 334.319 120 336.172 120 338.334ZM393.484 177.425C394.916 175.996 396.051 174.299 396.826 172.431C397.601 170.563 398 168.56 398 166.538C398 164.516 397.601 162.513 396.826 160.645C396.051 158.777 394.916 157.08 393.484 155.651L357.349 119.516C355.92 118.084 354.223 116.949 352.355 116.174C350.487 115.399 348.485 115 346.462 115C344.44 115 342.437 115.399 340.569 116.174C338.701 116.949 337.004 118.084 335.575 119.516L307.316 147.776L365.224 205.684L393.484 177.425Z"
            fill="white" />
    </g>
    <defs>
        <linearGradient id="paint0_linear_114_23" x1="728.461" y1="473.461" x2="60.5" y2="-194.5"
            gradientUnits="userSpaceOnUse">
            <stop stop-color="#141C26" />
            <stop offset="1" stop-color="#4A678C" />
        </linearGradient>
        <linearGradient id="paint1_linear_114_23" x1="-218.575" y1="35.8858" x2="455.91" y2="710.37"
            gradientUnits="userSpaceOnUse">
            <stop stop-color="#141C26" />
            <stop offset="1" stop-color="#4A678C" />
        </linearGradient>
        <clipPath id="clip0_114_23">
            <rect x="0.0195312" y="0.980469" width="511.961" height="512" rx="60" fill="white" />
        </clipPath>
    </defs>
</svg>